<svg xmlns="http://www.w3.org/2000/svg" viewBox="0 0 64 64">
  <path fill="currentColor" fill-rule="evenodd" d="M 22.44 5.50 L 22.01 5.72 L 21.79 6.15 L 21.57 8.54 L 21.36 8.76 L 21.14 9.84 L 20.70 10.50 L 20.70 10.93 L 20.27 11.58 L 20.27 12.02 L 19.84 12.67 L 19.62 13.75 L 18.97 15.06 L 18.97 15.71 L 18.75 15.93 L 18.75 16.36 L 18.32 17.23 L 18.32 17.88 L 18.10 18.10 L 17.88 20.49 L 17.66 20.70 L 17.66 23.75 L 17.88 23.96 L 17.88 25.05 L 18.10 25.27 L 18.32 26.79 L 18.97 28.09 L 18.97 28.52 L 20.27 30.91 L 20.27 32.43 L 20.05 32.65 L 19.84 33.95 L 18.75 35.91 L 18.75 36.34 L 18.53 36.56 L 18.53 37.00 L 17.88 38.52 L 17.88 39.82 L 17.66 40.04 L 17.66 42.43 L 17.88 42.64 L 17.88 44.16 L 18.10 44.38 L 18.10 45.25 L 18.32 45.47 L 18.32 46.34 L 18.53 46.55 L 18.53 47.42 L 18.75 47.64 L 18.75 48.29 L 18.97 48.51 L 18.97 49.59 L 19.18 49.81 L 19.18 50.68 L 19.40 50.90 L 19.40 53.50 L 17.66 55.02 L 17.45 55.89 L 17.23 56.11 L 17.45 57.41 L 18.75 58.50 L 24.18 58.50 L 25.05 58.07 L 25.70 57.20 L 25.70 56.55 L 25.92 56.11 L 25.70 55.89 L 25.48 54.59 L 24.83 53.72 L 25.05 50.46 L 25.27 50.25 L 25.27 49.38 L 25.48 49.16 L 25.48 48.51 L 25.70 48.29 L 26.14 46.55 L 27.22 44.60 L 27.22 44.16 L 27.66 43.30 L 27.66 42.64 L 27.87 42.43 L 27.87 41.12 L 28.09 40.91 L 27.87 37.86 L 27.66 37.65 L 27.66 36.78 L 27.44 36.56 L 27.44 35.91 L 27.22 35.69 L 27.22 34.39 L 30.26 28.31 L 30.26 27.87 L 30.91 26.35 L 30.91 25.70 L 31.13 25.48 L 31.13 24.83 L 31.35 24.61 L 31.35 23.75 L 31.57 23.53 L 31.57 22.66 L 31.78 22.44 L 31.78 21.57 L 32.00 21.36 L 32.22 21.57 L 32.43 23.53 L 32.65 23.75 L 32.65 24.40 L 32.87 24.61 L 32.87 25.27 L 33.09 25.48 L 33.09 26.14 L 33.30 26.35 L 33.52 27.66 L 33.95 28.31 L 34.39 29.83 L 36.56 33.74 L 36.56 34.39 L 36.78 34.61 L 36.78 35.69 L 36.56 35.91 L 36.56 36.78 L 36.34 37.00 L 36.34 37.86 L 36.13 38.08 L 36.13 39.39 L 35.91 39.60 L 35.91 40.91 L 36.13 41.12 L 36.13 42.43 L 36.34 42.64 L 36.34 43.30 L 36.56 43.51 L 36.78 44.60 L 38.30 47.64 L 38.52 48.94 L 38.73 49.16 L 38.73 49.81 L 38.95 50.03 L 39.17 53.72 L 38.30 55.24 L 38.30 57.20 L 38.95 58.07 L 39.82 58.50 L 45.25 58.50 L 45.68 58.28 L 46.77 56.98 L 46.77 55.89 L 46.55 55.68 L 46.55 55.24 L 44.60 53.50 L 44.60 51.55 L 44.82 51.33 L 45.03 48.94 L 45.25 48.73 L 45.25 47.86 L 45.47 47.64 L 45.47 46.77 L 45.68 46.55 L 45.68 45.68 L 45.90 45.47 L 45.90 44.60 L 46.12 44.38 L 46.12 43.08 L 46.34 42.86 L 46.34 39.39 L 46.12 39.17 L 46.12 38.30 L 45.90 38.08 L 45.47 36.34 L 43.95 33.30 L 43.73 30.91 L 45.68 27.00 L 45.68 26.35 L 45.90 26.14 L 45.90 25.48 L 46.12 25.27 L 46.12 24.18 L 46.34 23.96 L 46.34 20.49 L 46.12 20.27 L 46.12 18.97 L 45.90 18.75 L 45.90 17.88 L 45.47 17.01 L 45.47 16.36 L 45.25 16.14 L 44.60 13.75 L 44.16 13.10 L 43.95 12.02 L 43.51 11.36 L 43.51 10.93 L 42.64 9.19 L 42.64 8.54 L 42.43 8.32 L 42.43 7.24 L 42.21 7.02 L 42.21 5.93 L 41.56 5.50 L 41.12 5.50 L 40.69 5.93 L 40.91 8.32 L 40.04 8.76 L 37.86 8.76 L 37.65 8.98 L 26.57 8.98 L 26.35 8.76 L 24.18 8.76 L 23.96 8.54 L 23.31 8.54 L 23.09 8.32 L 23.31 5.93 Z M 22.66 10.06 L 24.61 10.06 L 24.83 10.28 L 27.87 10.28 L 28.09 10.50 L 36.13 10.50 L 36.34 10.28 L 39.39 10.28 L 39.60 10.06 L 41.34 10.06 L 41.99 11.15 L 41.99 11.58 L 42.43 12.23 L 42.64 13.32 L 43.08 13.97 L 43.08 14.41 L 43.30 14.62 L 43.30 15.06 L 43.95 16.58 L 43.95 17.23 L 44.16 17.45 L 44.16 18.10 L 44.38 18.32 L 44.38 18.97 L 44.60 19.18 L 44.60 20.70 L 44.82 20.92 L 44.82 23.75 L 44.60 23.96 L 44.38 26.14 L 44.16 26.35 L 43.95 27.44 L 43.30 28.52 L 43.30 28.96 L 42.64 29.83 L 42.21 31.57 L 42.43 31.78 L 42.43 33.30 L 42.64 33.52 L 42.86 34.61 L 43.95 36.56 L 43.95 37.00 L 44.60 38.52 L 44.60 39.39 L 44.82 39.60 L 44.82 42.64 L 44.60 42.86 L 44.38 45.47 L 44.16 45.68 L 44.16 46.55 L 43.95 46.77 L 43.95 47.64 L 43.73 47.86 L 43.73 48.73 L 43.51 48.94 L 43.51 49.81 L 43.30 50.03 L 43.30 51.55 L 43.08 51.77 L 43.08 54.16 L 45.03 55.68 L 45.25 56.11 L 45.25 56.76 L 45.03 56.98 L 40.04 56.98 L 39.60 56.33 L 39.82 55.46 L 40.69 53.72 L 40.69 52.20 L 40.47 51.98 L 40.47 50.25 L 40.25 50.03 L 40.25 48.94 L 40.04 48.73 L 40.04 48.07 L 39.82 47.86 L 39.60 46.77 L 38.52 44.82 L 38.30 43.73 L 37.86 43.08 L 37.65 41.34 L 37.43 41.12 L 37.43 39.17 L 37.65 38.95 L 37.65 37.86 L 37.86 37.65 L 37.86 36.78 L 38.08 36.56 L 38.30 34.61 L 38.08 34.39 L 38.08 33.52 L 37.86 33.30 L 37.86 32.87 L 37.43 32.00 L 37.00 31.57 L 35.26 28.09 L 35.26 27.66 L 34.61 26.14 L 34.61 25.48 L 34.17 24.61 L 34.17 23.75 L 33.95 23.53 L 33.95 22.88 L 33.74 22.66 L 33.74 21.79 L 33.52 21.57 L 33.52 20.49 L 33.30 20.27 L 33.30 19.18 L 33.09 18.97 L 33.09 17.23 L 32.87 16.80 L 32.43 16.58 L 31.57 16.58 L 30.91 17.45 L 30.91 18.75 L 30.70 18.97 L 30.48 21.57 L 30.26 21.79 L 30.26 22.66 L 30.05 22.88 L 30.05 23.53 L 29.83 23.75 L 29.83 24.61 L 29.61 24.83 L 29.39 26.35 L 28.74 27.66 L 28.74 28.09 L 28.31 28.74 L 28.31 29.18 L 27.44 30.91 L 27.00 31.35 L 25.92 33.74 L 25.92 36.56 L 26.14 36.78 L 26.35 38.95 L 26.57 39.17 L 26.57 41.34 L 26.35 41.56 L 26.35 42.43 L 26.14 42.64 L 25.70 44.38 L 25.05 45.47 L 25.05 45.90 L 24.61 46.55 L 24.61 46.99 L 23.96 48.51 L 23.96 49.16 L 23.75 49.38 L 23.75 50.46 L 23.53 50.68 L 23.53 54.37 L 23.96 54.81 L 23.96 55.24 L 24.40 55.89 L 24.40 56.55 L 23.96 56.98 L 18.97 56.98 L 18.75 56.76 L 18.75 56.11 L 18.97 55.68 L 20.92 54.16 L 20.92 51.55 L 20.70 51.33 L 20.70 50.03 L 20.49 49.81 L 20.49 48.73 L 20.27 48.51 L 20.27 47.64 L 20.05 47.42 L 19.84 45.68 L 19.62 45.47 L 19.62 44.38 L 19.40 44.16 L 19.40 43.08 L 19.18 42.86 L 19.18 39.39 L 19.40 39.17 L 19.40 38.52 L 19.62 38.30 L 20.05 36.56 L 20.70 35.48 L 20.70 35.04 L 21.57 33.30 L 21.57 30.26 L 20.05 27.44 L 20.05 27.00 L 19.62 26.14 L 19.62 25.48 L 19.40 25.27 L 19.40 24.40 L 19.18 24.18 L 19.18 20.27 L 19.40 20.05 L 19.40 18.97 L 19.62 18.75 L 19.84 17.23 L 20.05 17.01 L 20.05 16.58 L 20.27 16.36 L 21.14 13.32 L 21.57 12.67 L 22.01 11.15 Z M 41.99 19.62 L 41.34 19.62 L 40.91 20.05 L 40.69 22.88 L 40.47 23.09 L 40.47 23.96 L 40.25 24.18 L 40.25 25.05 L 40.04 25.27 L 39.82 27.22 L 39.60 27.44 L 39.60 28.09 L 39.39 28.31 L 39.39 30.05 L 39.60 30.26 L 40.47 30.26 L 40.91 29.39 L 40.91 28.31 L 41.12 28.09 L 41.34 26.14 L 41.56 25.92 L 41.56 25.27 L 41.77 25.05 L 41.99 22.88 L 42.21 22.66 L 42.21 21.36 L 42.43 21.14 L 42.43 20.05 Z M 22.01 19.62 L 21.57 20.27 L 21.57 20.70 L 21.79 20.92 L 22.01 23.75 L 22.23 23.96 L 22.44 25.70 L 22.66 25.92 L 22.66 26.57 L 22.88 26.79 L 22.88 27.66 L 23.09 27.87 L 23.31 29.83 L 23.53 30.26 L 24.18 30.48 L 24.61 30.05 L 24.83 29.39 L 24.61 29.18 L 24.61 28.31 L 24.40 28.09 L 24.18 26.14 L 23.96 25.92 L 23.96 25.27 L 23.75 25.05 L 23.75 24.18 L 23.53 23.96 L 23.53 23.31 L 23.31 23.09 L 23.09 20.05 L 22.66 19.62 Z"/>
</svg>
